# xmcd
#
# Track frame offsets: 
#        150
#        37756
#        82707
#        112002
#        140378
#        167970
#        209088
#        234552
#        257181
#        281382
#        304193
#        327116
#
# Disc length: 4672 seconds
#
# Revision: 0
# Processed by: cddbd v1.5.2PL0 Copyright (c) Steve Scherf et al.
# Submitted via: ExactAudioCopy v1.0b3
#
DISCID=a3123e0c
DTITLE=Various Artist - Laser Trance Vol. 1 - CD 1
DYEAR=1900
DGENRE=
TTITLE0=Tiesto Feat. BT - Break My Fall (Airbase Rmx)
TTITLE1=First State Feat. Anita Kelsey - Falling (Xtd Mix)
TTITLE2=Above and Beyond - Home (Wippenberg Rmx)
TTITLE3=Cosmic Gate - Body Of Conflict (Cosmic Gate Club Mix)
TTITLE4=Cold Blue and Del Mar - 11 Days (Sebastian Brandt Rmx)
TTITLE5=Vincent De Moor - Fly Away (Cosmic Gate Rmx)
TTITLE6=Sean Tyas - One More Night Out
TTITLE7=Global Illumination - Tremble (Danilo Ercole Rmx)
TTITLE8=The Blizzard - Kolopasia
TTITLE9=Plastic Angel - Try Walking In My World
TTITLE10=Talla 2XLC Feat. Naama Hillman - No Inbetween (John O'Callagh
TTITLE10=an Rmx)
TTITLE11=Amurai Vs. Static Blue - After The Sunrise (Alex M.O.R.P.H. 2
TTITLE11=b2 Woody Van Eyden Full On Rmx)
EXTD=
EXTT0=
EXTT1=
EXTT2=
EXTT3=
EXTT4=
EXTT5=
EXTT6=
EXTT7=
EXTT8=
EXTT9=
EXTT10=
EXTT11=
PLAYORDER=
